<svg id="futbin-logo" xmlns="http://www.w3.org/2000/svg" viewBox="0 0 903.2 649.44"><defs><style>.cls-1{fill:#404040;stroke:#696969;stroke-miterlimit:10;}</style></defs><path class="cls-1" d="M903,649.44H1L120.31,1H783.79Z" transform="translate(-0.4 -0.5)"/><path class="cls-1" d="M551,275.42c2.2,46.28-42.07,85.34-99,85.34s-101.17-39.06-99-85.34c2.11-44.3,46.39-78.86,99-78.86S548.89,231.12,551,275.42Z" transform="translate(-0.4 -0.5)"/><path class="cls-1" d="M69.88,275H834.17" transform="translate(-0.4 -0.5)"/><path class="cls-1" d="M541.29,71.4c1.79,37.61-38.2,69.23-89.39,69.23S360.73,109,362.53,71.4c1.73-36.16,41.72-64.46,89.39-64.46S539.57,35.24,541.29,71.4Z" transform="translate(-0.4 -0.5)"/><path class="cls-1" d="M269.12,96.5h371L630.66,1.15H278.31Z" transform="translate(-0.4 -0.5)"/><path class="cls-1" d="M371.92,54.76H532.54L530.22,1.14h-156Z" transform="translate(-0.4 -0.5)"/><path class="cls-1" d="M343.46,530.33c2.6-55.78,52.32-99.07,111.16-99.07S563.28,474.55,566,530.33c2.85,58.58-46.85,108.27-111.15,108.27S340.74,588.91,343.47,530.33Z" transform="translate(-0.4 -0.5)"/><path class="cls-1" d="M675.6,492.57H227.26L211.91,649.2H690.84Z" transform="translate(-0.4 -0.5)"/><path class="cls-1" d="M556.36,556.64h-204l-3.92,92.6h212Z" transform="translate(-0.4 -0.5)"/></svg>