<svg id="Layer_1" data-name="Layer 1" xmlns="http://www.w3.org/2000/svg" viewBox="0 0 106.05 105.56"><defs><style>.cls-1{fill:#fff;stroke:#231f20;stroke-miterlimit:10;}</style></defs><path class="cls-1" d="M99.86,68.07" transform="translate(-46.97 -47.22)"/><path d="M153,66.05a11.29,11.29,0,0,1-3.55,5.45c-2.87,2.78-5.67,5.65-8.51,8.48-.26.26-.54.52-.74.71L118.67,59.13c.12-.12.34-.37.57-.6l8.12-8.12c4.27-4.25,10-4.25,14.25,0,2.65,2.63,5.24,5.3,7.92,7.9a10.76,10.76,0,0,1,3.5,5.47Z" transform="translate(-46.97 -47.22)"/><path d="M79.79,140.83c-7.06-7-14.22-14.18-21.3-21.26L113,65.15l21.25,21.26Z" transform="translate(-46.97 -47.22)"/><path d="M52.36,125.6,73.77,147l-6.14,1.51-17,4.12c-2.7.65-4.12-.68-3.52-3.38Q49.72,137.42,52.36,125.6Z" transform="translate(-46.97 -47.22)"/></svg>